<svg xmlns="http://www.w3.org/2000/svg" width="409.268" height="405.5" viewBox="0 0 409.268 405.5">
  <g id="Group_11" data-name="Group 11" transform="translate(-497.366 -145)">
    <g id="Rectangle_19" data-name="Rectangle 19" transform="translate(497.366 254.857)" fill="none" stroke="#e2e2e2" stroke-width="1">
      <rect width="174.772" height="83.388" stroke="none"/>
      <rect x="0.5" y="0.5" width="173.772" height="82.388" fill="none"/>
    </g>
    <g id="Rectangle_20" data-name="Rectangle 20" transform="translate(497.366 254.857)" fill="#e2e2e2" stroke="#e2e2e2" stroke-width="1">
      <rect width="174.772" height="11.423" stroke="none"/>
      <rect x="0.5" y="0.5" width="173.772" height="10.423" fill="none"/>
    </g>
    <rect id="Rectangle_17" data-name="Rectangle 17" width="147.357" height="92.526" transform="translate(553.339 181.75)" fill="#e7e7e7"/>
    <rect id="Rectangle_21" data-name="Rectangle 21" width="149.642" height="151.926" transform="translate(513.358 309.688)" fill="#f0f0f0" opacity="0.8"/>
    <g id="Rectangle_22" data-name="Rectangle 22" transform="translate(513.358 309.688)" fill="#a5a5a5" stroke="#a5a5a5" stroke-width="1" opacity="0.78">
      <rect width="149.642" height="60.542" stroke="none"/>
      <rect x="0.5" y="0.5" width="148.642" height="59.542" fill="none"/>
    </g>
    <g id="_3372195" data-name="3372195" transform="translate(583.857 219.446)">
      <g id="Background_Complete" data-name="Background Complete" transform="translate(6.89 29.835)">
        <path id="Path_19" data-name="Path 19" d="M88.106,200.676a18.85,18.85,0,0,1-3.516,3.7l.917,4.643-7.153,3.171-2.825-3.757a19.286,19.286,0,0,1-5.1.128l-2.63,3.922-7.3-2.847.684-4.681a19.069,19.069,0,0,1-3.689-3.516l-4.636.909L49.683,195.2l3.757-2.825a19.61,19.61,0,0,1-.128-5.1l-3.922-2.63,2.833-7.31,4.681.684a19.33,19.33,0,0,1,3.516-3.689l-.917-4.636,7.153-3.178,2.825,3.794a19.288,19.288,0,0,1,5.1-.128l2.63-3.929,7.3,2.817-.684,4.681a19.1,19.1,0,0,1,3.7,3.516l4.636-.917,3.178,7.153-3.757,2.825a19.286,19.286,0,0,1,.128,5.1l3.929,2.63-2.855,7.318-4.681-.684Zm-7.9-7.979a8.392,8.392,0,1,0-10.827,4.816A8.392,8.392,0,0,0,80.209,192.7Z" transform="translate(-49.12 -97.474)" fill="none"/>
        <path id="Path_20" data-name="Path 20" d="M84.96,197.607a6.394,6.394,0,0,1-.9,1.871,8.483,8.483,0,0,1-8.482,3.561,8.581,8.581,0,0,1-4.095-1.953,7.957,7.957,0,0,1-1.623-1.871,8.107,8.107,0,0,1-1.052-2.367,8.567,8.567,0,1,1,16.74-1.232,6.3,6.3,0,0,1-.586,1.991,18.377,18.377,0,0,0,.4-2.014,8.34,8.34,0,0,0-1.24-5.312,8.167,8.167,0,0,0-6.83-3.854,8.265,8.265,0,0,0-4.561,1.3,8.137,8.137,0,0,0-3.464,9.016A7.784,7.784,0,0,0,70.249,199a7.587,7.587,0,0,0,1.5,1.781,8.2,8.2,0,0,0,7.641,1.7,8.325,8.325,0,0,0,4.508-3.1A20.173,20.173,0,0,0,84.96,197.607Z" transform="translate(-53.871 -102.384)" fill="#e0e0e0"/>
        <path id="Path_21" data-name="Path 21" d="M88.016,200.546h.3l.887.113,3.509.473-.083.045,2.765-7.318.053.15-3.937-2.622-.075-.045v-.083a19.271,19.271,0,0,0-.143-5.064v-.09l.075-.06,3.757-2.84-.053.21-3.193-7.145.21.113-4.636.924h-.12l-.075-.1a19.055,19.055,0,0,0-3.659-3.471l-.105-.075v-.12c.21-1.45.436-3.05.676-4.681l.135.233-7.3-2.81.263-.083c-.819,1.225-1.713,2.57-2.63,3.929l-.075.113h-.135a19.385,19.385,0,0,0-5.041.135l-.09.06-.09-.113-2.825-3.794.285.075-7.138,3.171.143-.27c.286,1.5.6,3.05.909,4.643v.143l-.113.09a19.12,19.12,0,0,0-3.471,3.644h0l-.233.1h-.285l-.3-.045L55.589,178l-1.172-.173-2.329-.338.255-.158q-1.42,3.712-2.817,7.3l-.09-.286,3.944,2.622.12.083v.135a18.843,18.843,0,0,0,.12,5.041v.135l-.113.09-3.749,2.78.075-.27q1.608,3.666,3.163,7.153l-.248-.128,4.643-.909h.128l.083.105a19,19,0,0,0,3.644,3.486l.105.075v.12c-.24,1.608-.466,3.163-.691,4.681l-.128-.218,7.258,2.81-.218.075c.924-1.382,1.8-2.675,2.637-3.922l.06-.09h.105a19.42,19.42,0,0,0,5.056-.113h.09l.06.075c1.022,1.382,1.946,2.622,2.81,3.8l-.165-.045,7.145-3.163-.06.12-.887-4.628V204.2h.038a19.468,19.468,0,0,0,2.757-2.66l.6-.751a1.827,1.827,0,0,1,.2-.24,1.4,1.4,0,0,1-.165.263c-.128.173-.308.428-.579.751a18.781,18.781,0,0,1-2.72,2.735v-.075c.263,1.262.571,2.78.947,4.628v.083h-.083l-7.115,3.253-.105.045-.068-.09c-.879-1.172-1.8-2.412-2.84-3.757l.15.06a19.332,19.332,0,0,1-5.139.15l.158-.075-2.622,3.929-.053.068h-.15l-7.3-2.795-.15-.06V209.5c.218-1.5.443-3.073.676-4.681l.083.2a19.421,19.421,0,0,1-3.757-3.554l.21.075-4.636.924h-.173l-.075-.158-3.178-7.153-.075-.165.143-.113,3.794-2.825-.09.225a19.422,19.422,0,0,1-.135-5.162l.105.218-3.892-2.622-.158-.105.068-.18q1.39-3.6,2.81-7.3l.075-.18h.188l2.329.346,1.172.165.594.09h.579l-.225.1h0a19.686,19.686,0,0,1,3.561-3.757l-.083.233c-.316-1.593-.631-3.171-.917-4.636V169.3l.173-.083,7.153-3.163.173-.083.113.158,2.825,3.794-.225-.09a19.325,19.325,0,0,1,5.162-.128l-.21.1c.909-1.36,1.811-2.7,2.637-3.922l.1-.15.165.068,7.3,2.817.165.068v.165c-.24,1.63-.473,3.231-.684,4.681l-.09-.2a19.2,19.2,0,0,1,3.757,3.561l-.188-.068,4.643-.909h.143l.068.143,3.156,7.16.053.12-.113.083-3.794,2.817.06-.15a19.467,19.467,0,0,1,.113,5.139l-.068-.135,3.922,2.652.075.053v.09l-2.855,7.28v.06h-.06l-3.464-.548-.9-.15Z" transform="translate(-49.03 -97.344)" fill="#e0e0e0"/>
        <path id="Path_22" data-name="Path 22" d="M145.674,173a15.7,15.7,0,0,1-2.915,3.065l.751,3.854-5.935,2.63-2.337-3.118a15.613,15.613,0,0,1-4.23.105l-2.186,3.261-6.056-2.337.563-3.877a15.943,15.943,0,0,1-3.065-2.923l-3.847.751-2.63-5.928,3.141-2.344a16.289,16.289,0,0,1-.105-4.238l-3.253-2.179,2.329-6.056,3.884.564a16.138,16.138,0,0,1,2.915-3.065l-.751-3.847,5.935-2.637,2.344,3.148a16.237,16.237,0,0,1,4.23-.105l2.186-3.253L142.7,146.8l-.563,3.884A16.138,16.138,0,0,1,145.2,153.6l3.847-.751,2.63,5.935-3.148,2.344a15.912,15.912,0,0,1,.113,4.23l3.253,2.186-2.337,6.056-3.877-.571Zm-6.552-6.612a6.965,6.965,0,1,0-3.681,3.865,6.965,6.965,0,0,0,3.681-3.865Z" transform="translate(-65.079 -92.058)" fill="#e0e0e0" fill-rule="evenodd"/>
        <path id="Path_23" data-name="Path 23" d="M105.614,119.489a25.057,25.057,0,0,1-4.576,4.808l1.187,6.011-9.3,4.132L89.25,129.5a24.839,24.839,0,0,1-6.642.165l-3.419,5.109-9.5-3.659.894-6.086a24.846,24.846,0,0,1-4.808-4.576l-6.011,1.187-4.132-9.3,4.936-3.674a24.839,24.839,0,0,1-.165-6.642L55.29,98.61l3.636-9.482,6.086.894a24.846,24.846,0,0,1,4.576-4.808L68.4,79.2l9.3-4.125,3.666,4.906A24.794,24.794,0,0,1,88,79.819l3.426-5.109,9.5,3.659-.894,6.086a24.846,24.846,0,0,1,4.808,4.576l6.011-1.187,4.132,9.3-4.936,3.674a24.839,24.839,0,0,1,.165,6.642l5.109,3.419-3.659,9.5-6.086-.887ZM95.336,109.113a10.917,10.917,0,1,0-14.117,6.266,10.917,10.917,0,0,0,14.117-6.266Z" transform="translate(-50.587 -74.71)" fill="#e0e0e0" fill-rule="evenodd"/>
        <rect id="Rectangle_12" data-name="Rectangle 12" width="85.508" height="13.344" transform="translate(81.181 71.819)" fill="#fe715d"/>
      </g>
      <g id="Floor" transform="translate(0.143 329.163)">
        <path id="Path_24" data-name="Path 24" d="M355.569,473.305c0,.113-70.625.2-157.741.2s-157.778-.083-157.778-.2,70.625-.2,157.778-.2S355.569,473.2,355.569,473.305Z" transform="translate(-40.05 -473.11)" fill="#263238"/>
      </g>
      <g id="Screen" transform="translate(74.399 0)">
        <rect id="Rectangle_14" data-name="Rectangle 14" width="142.271" height="295.166" rx="19.94" transform="translate(0.14 0.173)" fill="#fafafa"/>
        <path id="Path_25" data-name="Path 25" d="M266.313,330.339h.548a12.2,12.2,0,0,0,1.63-.158,15.027,15.027,0,0,0,5.951-2.254,15.493,15.493,0,0,0,3.494-3.163,14.683,14.683,0,0,0,2.652-5c.113-.5.27-1.007.368-1.5a15.776,15.776,0,0,0,.21-1.615c.083-1.1.06-2.254.06-3.449v-7.6c0-21.488-.038-52.593-.068-90.986s0-84.148-.038-134.946V50.492a16.343,16.343,0,0,0-.691-4.816,14.756,14.756,0,0,0-10.271-9.767,15.869,15.869,0,0,0-2.442-.451c-.834-.045-1.66-.083-2.509-.068H154a14.824,14.824,0,0,0-14.673,13.133c-.165,1.766-.083,3.591-.105,5.395V315.891l.045.917a6.155,6.155,0,0,0,.128.909,11.814,11.814,0,0,0,.383,1.788,14.861,14.861,0,0,0,9.467,9.94,16.169,16.169,0,0,0,1.668.466c.564.113,1.135.2,1.706.27,1.142.075,2.292.075,3.434.068h37.784l39.144.038,24.7-.015h0l-24.734.038H156.026c-1.142,0-2.254,0-3.456-.068-.579-.075-1.165-.158-1.736-.271a16.868,16.868,0,0,1-1.706-.473,15.139,15.139,0,0,1-9.647-10.113,13.627,13.627,0,0,1-.4-1.826c-.038-.308-.105-.616-.128-.924l-.053-.939c-.045-1.255,0-2.494,0-3.757V53.881c0-1.811-.06-3.606.105-5.44A15.214,15.214,0,0,1,154,35h111.2c.841,0,1.69,0,2.539.068a16.589,16.589,0,0,1,2.509.466,15.681,15.681,0,0,1,4.606,2.1,15.508,15.508,0,0,1,5.92,7.949,16.94,16.94,0,0,1,.714,4.929V79.584c0,50.79,0,96.53-.045,134.946s-.045,69.5-.06,90.986v7.6c0,1.195,0,2.344-.068,3.456a14.579,14.579,0,0,1-.6,3.171,14.789,14.789,0,0,1-2.682,5.041,15.943,15.943,0,0,1-3.524,3.163,14.823,14.823,0,0,1-6.011,2.254,10.476,10.476,0,0,1-1.638.135Z" transform="translate(-138.883 -35)" fill="#263238"/>
        <path id="Path_26" data-name="Path 26" d="M302.166,73.14a.376.376,0,0,1-.376-.376V64.876a.376.376,0,1,1,.751,0v7.866a.376.376,0,0,1-.376.4Z" transform="translate(-179.394 -42.336)" fill="#263238"/>
        <path id="Path_27" data-name="Path 27" d="M306.186,74.814a.383.383,0,0,1-.376-.376V71.606a.376.376,0,1,1,.751,0v2.81a.376.376,0,0,1-.376.4Z" transform="translate(-180.394 -44.009)" fill="#263238"/>
        <path id="Path_28" data-name="Path 28" d="M306.186,68.271a.383.383,0,0,1-.376-.376v-2.81a.376.376,0,1,1,.751,0v2.848A.376.376,0,0,1,306.186,68.271Z" transform="translate(-180.394 -42.388)" fill="#263238"/>
        <circle id="Ellipse_26" data-name="Ellipse 26" cx="0.857" cy="0.857" r="0.857" transform="translate(124.86 26.417)" fill="#263238"/>
        <circle id="Ellipse_27" data-name="Ellipse 27" cx="0.857" cy="0.857" r="0.857" transform="translate(121.87 27.664)" fill="#263238"/>
        <path id="Path_29" data-name="Path 29" d="M309.986,73.14a.383.383,0,0,1-.376-.376V64.876a.376.376,0,1,1,.751,0v7.866a.376.376,0,0,1-.376.4Z" transform="translate(-181.339 -42.336)" fill="#263238"/>
        <circle id="Ellipse_28" data-name="Ellipse 28" cx="0.857" cy="0.857" r="0.857" transform="translate(127.745 23.426)" fill="#263238"/>
        <path id="Path_30" data-name="Path 30" d="M278.25,114.935c0,.113-29.783.2-66.515.2s-66.515-.083-66.515-.2,29.775-.2,66.515-.2S278.25,114.83,278.25,114.935Z" transform="translate(-140.459 -54.829)" fill="#263238"/>
        <path id="Path_31" data-name="Path 31" d="M181.558,115.5h-26.3a.751.751,0,0,1,0-1.5h26.3a.751.751,0,0,1,0,1.5Z" transform="translate(-142.769 -54.645)" fill="#fe715d"/>
        <path id="Path_32" data-name="Path 32" d="M276.55,156.775c0,.113-29.783.2-66.507.2s-66.522-.09-66.522-.2,29.775-.2,66.522-.2S276.55,156.67,276.55,156.775Z" transform="translate(-140.036 -65.234)" fill="#fe715d"/>
        <path id="Path_33" data-name="Path 33" d="M302.074,139.6h-9.256a5.425,5.425,0,1,1,0-10.842h9.256a5.425,5.425,0,0,1,0,10.842ZM292.8,129.51a4.673,4.673,0,1,0,0,9.339h9.279a4.673,4.673,0,0,0,0-9.339Z" transform="translate(-175.764 -58.314)" fill="#fe715d"/>
        <path id="Path_34" data-name="Path 34" d="M293.4,138.578a3.659,3.659,0,1,1,3.651-3.659A3.659,3.659,0,0,1,293.4,138.578Zm0-6.559a2.9,2.9,0,1,0,0-.007Z" transform="translate(-176.395 -58.937)" fill="#fe715d"/>
        <path id="Path_35" data-name="Path 35" d="M276.55,198.4c0,.105-29.783.2-66.507.2s-66.522-.09-66.522-.2,29.775-.2,66.522-.2S276.55,198.283,276.55,198.4Z" transform="translate(-140.036 -75.584)" fill="#e0e0e0"/>
        <rect id="Rectangle_15" data-name="Rectangle 15" width="19.369" height="10.083" rx="5.041" transform="translate(112.005 103.014)" fill="#fe715d"/>
        <path id="Path_36" data-name="Path 36" d="M309.4,177.916a3.283,3.283,0,1,1-3.276-3.276A3.283,3.283,0,0,1,309.4,177.916Z" transform="translate(-179.653 -69.725)" fill="#fe715d"/>
        <path id="Path_37" data-name="Path 37" d="M302.265,226.9h-9.256a5.049,5.049,0,0,1-5.049-5.049h0a5.049,5.049,0,0,1,5.049-5.041h9.256a5.041,5.041,0,0,1,5.041,5.041h0a5.041,5.041,0,0,1-5.041,5.049Z" transform="translate(-175.955 -80.211)" fill="#fe715d"/>
        <path id="Path_38" data-name="Path 38" d="M309.4,222.586a3.283,3.283,0,1,1-3.276-3.276,3.283,3.283,0,0,1,3.276,3.276Z" transform="translate(-179.653 -80.833)" fill="#fe715d"/>
        <path id="Path_39" data-name="Path 39" d="M276.55,240.413c0,.105-29.783.2-66.507.2s-66.522-.09-66.522-.2,29.775-.2,66.522-.2S276.55,240.3,276.55,240.413Z" transform="translate(-140.036 -86.03)" fill="#e0e0e0"/>
        <path id="Path_40" data-name="Path 40" d="M302.143,265.414h-9.256a5.417,5.417,0,0,1,0-10.834h9.256a5.417,5.417,0,1,1,0,10.834Zm-9.279-10.083a4.666,4.666,0,1,0,0,9.331h9.279a4.666,4.666,0,0,0,0-9.331Z" transform="translate(-175.833 -89.604)" fill="#fe715d"/>
        <path id="Path_41" data-name="Path 41" d="M293.4,264.378a3.659,3.659,0,1,1,3.651-3.659A3.659,3.659,0,0,1,293.4,264.378Zm0-6.559a2.908,2.908,0,1,0,2.9,2.9,2.908,2.908,0,0,0-2.9-2.9Z" transform="translate(-176.395 -90.221)" fill="#fe715d"/>
        <path id="Path_42" data-name="Path 42" d="M276.55,282.035c0,.113-29.783.2-66.507.2s-66.522-.083-66.522-.2,29.775-.2,66.522-.2S276.55,281.96,276.55,282.035Z" transform="translate(-140.036 -96.383)" fill="#e0e0e0"/>
        <path id="Path_43" data-name="Path 43" d="M276.55,322.2c0,.105-29.783.2-66.507.2s-66.522-.09-66.522-.2,29.775-.2,66.522-.2S276.55,322.083,276.55,322.2Z" transform="translate(-140.036 -106.369)" fill="#e0e0e0"/>
        <path id="Path_44" data-name="Path 44" d="M312.054,343.983a.368.368,0,0,1-.27-.113.376.376,0,0,1,0-.533l.887-.857-.909-.954a.376.376,0,0,1,.541-.518l1.172,1.232a.353.353,0,0,1,.105.27.361.361,0,0,1-.12.263l-1.172,1.1a.361.361,0,0,1-.233.105Z" transform="translate(-181.851 -111.072)" fill="#e8505b"/>
        <path id="Path_45" data-name="Path 45" d="M210.917,401.981a1.82,1.82,0,0,0,.383-.06,1.961,1.961,0,0,0,.977-.571,1.887,1.887,0,0,0,.413-.714,3.133,3.133,0,0,0,.075-1.014V386.714a2.253,2.253,0,0,0-.165-1.082,1.833,1.833,0,0,0-1.856-1.037H208.2l-54.231.053a1.728,1.728,0,0,0-1.5.841,1.675,1.675,0,0,0-.24.841v13.434a2.254,2.254,0,0,0,.09.857,1.72,1.72,0,0,0,1.157,1.1,3.129,3.129,0,0,0,.857.068H164.1l24.381.045,16.432.06,4.47.038h0l-4.47.038-16.432.06-24.381.045h-9.767a3.313,3.313,0,0,1-.962-.083,2.089,2.089,0,0,1-1.412-1.255,2.614,2.614,0,0,1-.113-.977V386.316a2.066,2.066,0,0,1,.293-1.029,2.126,2.126,0,0,1,1.811-1.037l54.231.06h2.539A2.089,2.089,0,0,1,212.8,385.5a2.449,2.449,0,0,1,.18,1.187v12.915a3.284,3.284,0,0,1-.105,1.037,1.848,1.848,0,0,1-.443.751,1.878,1.878,0,0,1-1.022.556A1.33,1.33,0,0,1,210.917,401.981Z" transform="translate(-142.105 -121.85)" fill="#263238"/>
        <rect id="Rectangle_16" data-name="Rectangle 16" width="60.827" height="17.521" rx="2.54" transform="translate(74.424 262.611)" fill="#fe715d"/>
      </g>
      <g id="Plant" transform="translate(0 167.711)">
        <path id="Path_46" data-name="Path 46" d="M60.953,373.433a26.3,26.3,0,0,0-11.307-3.892c-1.848-.2-3.869-.135-5.357.984a1.089,1.089,0,0,0-.548.977,1.2,1.2,0,0,0,.526.669,16.173,16.173,0,0,0,16.687,1.262" transform="translate(-40.825 -285.881)" fill="#fe715d"/>
        <path id="Path_47" data-name="Path 47" d="M62.282,368.451a55.663,55.663,0,0,1-7.31-6.424,18.528,18.528,0,0,1-4.583-8.475,3.4,3.4,0,0,1,.368-2.832c5.823,4.508,10.4,10.428,11.525,17.731" transform="translate(-42.439 -281.222)" fill="#fe715d"/>
        <path id="Path_48" data-name="Path 48" d="M66.447,368.893a26.559,26.559,0,0,1,.135-9.594A13.005,13.005,0,0,1,71.7,351.38c1.007,2.359.571,5.064-.135,7.513a36.657,36.657,0,0,1-5.071,10.669" transform="translate(-46.379 -281.387)" fill="#fe715d"/>
        <path id="Path_49" data-name="Path 49" d="M69.45,388.31a16.744,16.744,0,0,0-9.068,4.591,17.115,17.115,0,0,0-5.192,8.911c3.4-.21,6.281-2.607,8.377-5.259s3.539-5.635,5.838-8.152" transform="translate(-43.672 -290.57)" fill="#fe715d"/>
        <path id="Path_50" data-name="Path 50" d="M75.305,383.482A22.4,22.4,0,0,1,77.89,362.31a26.932,26.932,0,0,1-2.585,21.172" transform="translate(-48.288 -284.104)" fill="#fe715d"/>
        <path id="Path_51" data-name="Path 51" d="M80.67,402.43a16.191,16.191,0,0,0-15.477,8.911c-.188.383-.361.872-.105,1.21a1.134,1.134,0,0,0,1.029.3c3.05-.2,5.748-2.029,7.979-4.117s4.177-4.508,6.642-6.311" transform="translate(-46.101 -294.074)" fill="#fe715d"/>
        <path id="Path_52" data-name="Path 52" d="M85.12,394.686a28.813,28.813,0,0,1-.293-16.093c.571-2.074,1.5-4.252,3.434-5.259a.669.669,0,0,1,.526-.09.684.684,0,0,1,.338.383,9.715,9.715,0,0,1,.841,4.688,28.105,28.105,0,0,1-.751,4.673c-.6,2.855-.924,5.928-2.494,8.392a17.381,17.381,0,0,0-.992,1.841c-.3.631-.3.849-.571,1.345" transform="translate(-50.792 -286.819)" fill="#fe715d"/>
        <path id="Path_53" data-name="Path 53" d="M111.943,399.883a20.667,20.667,0,0,1,3.636-17.063c.255-.338.609-.706,1.029-.661.654.06.826.924.8,1.585a30.879,30.879,0,0,1-5.462,16.138" transform="translate(-57.645 -289.039)" fill="#fe715d"/>
        <path id="Path_54" data-name="Path 54" d="M114.52,405.438a24.816,24.816,0,0,0,20.368-4.14,16.409,16.409,0,0,0-11.022-1.352,15.7,15.7,0,0,0-9.346,5.492" transform="translate(-58.426 -293.362)" fill="#fe715d"/>
        <path id="Path_55" data-name="Path 55" d="M116.54,398.864a23.533,23.533,0,0,1,18.49-10.684c-.841,3.005-3.291,5.259-6.048,6.679a32.868,32.868,0,0,1-8.873,2.6c-1.18.225-2.8.481-3.569,1.4" transform="translate(-58.928 -290.538)" fill="#fe715d"/>
        <path id="Path_56" data-name="Path 56" d="M111.752,371.073a53.812,53.812,0,0,0,2.367-10.827,18.047,18.047,0,0,0-2.156-10.706,23.571,23.571,0,0,0-.316,21.9" transform="translate(-57.078 -280.929)" fill="#fe715d"/>
        <path id="Path_57" data-name="Path 57" d="M128.66,365.291c4.185-7.6,12.72-13.674,21.353-14.531-3.328,8.265-12.412,14.711-21.353,14.531" transform="translate(-61.942 -281.232)" fill="#fe715d"/>
        <path id="Path_58" data-name="Path 58" d="M125.16,371.668c6.236.954,11.555,4.936,17.386,7.355a7.882,7.882,0,0,0,3.929.751,3.08,3.08,0,0,0,1.923-5.447,8.385,8.385,0,0,0-2.855-1.728c-6.349-2.645-13.156-2.712-19.85-1.1" transform="translate(-61.072 -286.122)" fill="#fe715d"/>
        <path id="Path_59" data-name="Path 59" d="M120.348,377.807c1.412.4,1.9,1.135,3.005,2.089a32.526,32.526,0,0,0,13.186,6.762c.5.128,1.165.173,1.413-.278s-.06-.879-.338-1.232a18.16,18.16,0,0,0-7.964-5.41c-3.005-1.127-5.673-2.494-9.309-2.2" transform="translate(-59.873 -287.881)" fill="#fe715d"/>
        <path id="Path_60" data-name="Path 60" d="M114.93,342.507a24.944,24.944,0,0,0,19.129,6.506,1.314,1.314,0,0,0,.872-.308c.481-.526-.1-1.337-.661-1.773-5.62-4.38-12.434-6.2-19.339-4.425" transform="translate(-58.528 -279.013)" fill="#fe715d"/>
        <path id="Path_61" data-name="Path 61" d="M121.36,338.663a26.665,26.665,0,0,1,23.87-3.937,18.941,18.941,0,0,1-11.368,4.989,36.139,36.139,0,0,1-12.495-1.052" transform="translate(-60.127 -276.934)" fill="#fe715d"/>
        <path id="Path_62" data-name="Path 62" d="M117.743,318.631c-.556-5.62-.2-10.045-.586-15.688,0-.451-.128-.992-.548-1.157-.586-.225-1.082.5-1.27,1.1a17.972,17.972,0,0,0,2.389,15.62" transform="translate(-58.425 -269.043)" fill="#fe715d"/>
        <path id="Path_63" data-name="Path 63" d="M118.27,319.169a32.954,32.954,0,0,0,9.294-9.016c1.841-2.509,3.388-5.522,3.005-8.6a8.881,8.881,0,0,0-6.7,3.328,18.784,18.784,0,0,0-3.426,6.882c-.751,2.464-1.262,5-2.134,7.431" transform="translate(-59.359 -268.995)" fill="#fe715d"/>
        <path id="Path_64" data-name="Path 64" d="M130.39,317a74.869,74.869,0,0,0,22.878-13.524c-2.735-1.1-5.86-.436-8.6.661a27.046,27.046,0,0,0-14.4,12.773" transform="translate(-62.343 -269.333)" fill="#fe715d"/>
        <path id="Path_65" data-name="Path 65" d="M121.685,326.939a47.027,47.027,0,0,0,12.7.06,52.587,52.587,0,0,0,11.856-3.944,1.375,1.375,0,0,0,.811-.609.932.932,0,0,0-.293-1.014,2.352,2.352,0,0,0-1.007-.473,22.055,22.055,0,0,0-12.818.751,59.079,59.079,0,0,0-11.27,5.214" transform="translate(-60.204 -273.662)" fill="#fe715d"/>
        <path id="Path_66" data-name="Path 66" d="M88.881,336.843a22.506,22.506,0,0,1-.2-18.6c1.751,2.667,1.968,6.071,1.645,9.249s-1.285,6.446-1.352,9.639" transform="translate(-51.525 -273.145)" fill="#fe715d"/>
        <path id="Path_67" data-name="Path 67" d="M67.879,335.259A25.966,25.966,0,0,0,48.6,343.471a17.811,17.811,0,0,0,10.519-1.961,53.8,53.8,0,0,0,9.016-6.048" transform="translate(-42.033 -277.377)" fill="#fe715d"/>
        <path id="Path_68" data-name="Path 68" d="M58,331.694c-3.524-.285-6.9-.751-10.293.316a12.367,12.367,0,0,0-7.844,6.657,18.618,18.618,0,0,0,9.647-1.826A55.318,55.318,0,0,0,58,331.694" transform="translate(-39.86 -276.404)" fill="#fe715d"/>
        <path id="Path_69" data-name="Path 69" d="M72.384,330.21c-3.163-2.074-6.416-4.185-10.105-5.049s-7.957-.225-10.519,2.554c3.005,1.751,6.6,1.961,10.06,1.961s7.709-.045,10.969,1.112" transform="translate(-42.819 -274.777)" fill="#fe715d"/>
        <path id="Path_70" data-name="Path 70" d="M77.21,324.867c-5.417-5.312-7.468-14.861-5.259-22.127a33.735,33.735,0,0,1,5.259,22.127" transform="translate(-47.622 -269.291)" fill="#fe715d"/>
        <path id="Path_71" data-name="Path 71" d="M99.05,306.368c1.022-2.374,1.736-4.869,2.652-7.28a21.037,21.037,0,0,1,3.757-6.717,9.985,9.985,0,0,1,6.709-3.471,27.048,27.048,0,0,1-13.013,17.506" transform="translate(-54.579 -265.849)" fill="#fe715d"/>
        <path id="Path_72" data-name="Path 72" d="M90.827,313.164c-1.683-2.322-3.636-5.477-5.928-7.213a9.9,9.9,0,0,0-8.069-2.119,18.783,18.783,0,0,0,14,9.331" transform="translate(-49.053 -269.512)" fill="#fe715d"/>
        <path id="Path_73" data-name="Path 73" d="M95.222,306.628a39.984,39.984,0,0,1-2.667-8.648,13.441,13.441,0,0,1,1.352-8.791c2.968,5.62,3.929,11.646,1.465,17.506" transform="translate(-52.907 -265.921)" fill="#fe715d"/>
        <path id="Path_74" data-name="Path 74" d="M99.09,285.254c1.683-5.567,6.762-9.67,12.284-11.548a4.508,4.508,0,0,1,2.156-.323,1.848,1.848,0,0,1,1.585,1.322c.2.947-.579,1.8-1.315,2.427a41.9,41.9,0,0,1-14.711,8.122" transform="translate(-54.589 -261.986)" fill="#fe715d"/>
        <path id="Path_75" data-name="Path 75" d="M99.14,276.936a39.9,39.9,0,0,1,1.6-10.639c1.165-3.4,3.419-6.589,6.694-8.077.556,3.621-1.044,7.228-2.968,10.353s-4.26,6.063-5.417,9.542" transform="translate(-54.579 -258.22)" fill="#fe715d"/>
        <path id="Path_76" data-name="Path 76" d="M95.6,279.954c-1.39-4.057-1.5-9.219-3.967-12.772-1.7-2.472-4.418-4.155-5.883-6.762a10.346,10.346,0,0,0,.346,7.694,22.164,22.164,0,0,0,4.508,6.431c1.8,1.923,3.336,3.366,5.011,5.4" transform="translate(-51.127 -258.767)" fill="#fe715d"/>
        <path id="Path_77" data-name="Path 77" d="M99.02,405.456c-.113,0-.2-27.048-.21-60.459s.075-60.467.18-60.467.2,27.048.21,60.467S99.125,405.456,99.02,405.456Z" transform="translate(-54.519 -264.763)" fill="#fe715d"/>
        <path id="Path_78" data-name="Path 78" d="M122.726,337.55a6.48,6.48,0,0,1-1.014.383l-2.8.947c-2.359.8-5.6,1.969-9.129,3.411s-6.762,2.712-8.648,4.335a6.273,6.273,0,0,0-1.736,2.3c-.27.631-.316,1.022-.353,1.014s0-.1,0-.285a4.336,4.336,0,0,1,.2-.789,6.063,6.063,0,0,1,1.7-2.449,15.066,15.066,0,0,1,3.757-2.329c1.5-.7,3.163-1.435,4.929-2.156,3.539-1.45,6.807-2.577,9.2-3.313,1.195-.376,2.164-.654,2.84-.834a5.533,5.533,0,0,1,1.067-.233Z" transform="translate(-54.574 -277.947)" fill="#fe715d"/>
        <path id="Path_79" data-name="Path 79" d="M131.117,312.2a1.91,1.91,0,0,1-.286.3l-.872.819-3.276,2.945-10.759,9.609c-4.215,3.757-7.859,7.333-10.383,10.038-1.262,1.345-2.254,2.457-2.938,3.238-.316.361-.571.661-.751.894a1.946,1.946,0,0,1-.293.3,1.721,1.721,0,0,1,.233-.346c.165-.218.4-.541.751-.947.646-.811,1.608-1.953,2.848-3.328a137.347,137.347,0,0,1,10.271-10.15c4.23-3.757,8.077-7.1,10.872-9.527l3.328-2.848.917-.751C130.989,312.275,131.1,312.184,131.117,312.2Z" transform="translate(-55.203 -271.643)" fill="#fe715d"/>
        <path id="Path_80" data-name="Path 80" d="M114.617,332.377c-.105-.053.751-2.081,1.645-4.651s1.307-4.741,1.42-4.726a16.087,16.087,0,0,1-1.044,4.846,31.941,31.941,0,0,1-1.315,3.253A4.951,4.951,0,0,1,114.617,332.377Z" transform="translate(-58.448 -274.329)" fill="#fe715d"/>
        <path id="Path_81" data-name="Path 81" d="M93.923,350.747a4.607,4.607,0,0,1-.646-.751l-1.7-2.134c-1.4-1.811-3.328-4.305-5.492-7.032s-4.155-5.177-5.6-6.942l-1.683-2.1a4.846,4.846,0,0,1-.586-.8,5.2,5.2,0,0,1,.7.7c.436.473,1.044,1.165,1.8,2.029,1.5,1.728,3.524,4.147,5.7,6.882s4.065,5.259,5.41,7.1c.669.932,1.2,1.683,1.563,2.209a4.855,4.855,0,0,1,.541.849Z" transform="translate(-49.399 -276.314)" fill="#fe715d"/>
        <path id="Path_82" data-name="Path 82" d="M91.33,345.707a9.489,9.489,0,0,1-2.179-4.065,11.586,11.586,0,0,1-.488-4.1h.173c-.083.316-.135.481-.165.473s-.038-.18,0-.5h.173a18.526,18.526,0,0,0,.691,3.99A28.249,28.249,0,0,0,91.33,345.707Z" transform="translate(-51.991 -277.937)" fill="#fe715d"/>
        <path id="Path_83" data-name="Path 83" d="M79.428,336.651a7.13,7.13,0,0,0-1.5-.879,10.158,10.158,0,0,0-4.207-.338,26.519,26.519,0,0,0-4.245.684,12.888,12.888,0,0,1-1.743.421,6.011,6.011,0,0,1,1.668-.684,19.394,19.394,0,0,1,4.29-.811,9.168,9.168,0,0,1,4.343.473A2.674,2.674,0,0,1,79.428,336.651Z" transform="translate(-46.791 -277.304)" fill="#fe715d"/>
        <path id="Path_84" data-name="Path 84" d="M75.739,333.665c0,.068-.887-.353-2.329-.841A23.367,23.367,0,0,0,61.7,331.93c-1.5.27-2.4.548-2.427.481a2.579,2.579,0,0,1,.616-.263,13.963,13.963,0,0,1,1.758-.488,20.669,20.669,0,0,1,11.863.887,14.671,14.671,0,0,1,1.66.751,2.539,2.539,0,0,1,.571.368Z" transform="translate(-44.687 -276.362)" fill="#fe715d"/>
        <path id="Path_85" data-name="Path 85" d="M98.053,319.064a47.889,47.889,0,0,1-1.7-5.883,49.334,49.334,0,0,1-1.315-6.011,47.771,47.771,0,0,1,1.7,5.883,47.414,47.414,0,0,1,1.315,6.011Z" transform="translate(-53.582 -270.393)" fill="#fe715d"/>
        <path id="Path_86" data-name="Path 86" d="M97.653,320.889a27.423,27.423,0,0,0-1.878-3.524,15.523,15.523,0,0,0-2.765-2.855,2.629,2.629,0,0,1,1.067.548,8.639,8.639,0,0,1,2.021,2.074,7.761,7.761,0,0,1,1.555,3.757Z" transform="translate(-53.077 -272.218)" fill="#fe715d"/>
        <path id="Path_87" data-name="Path 87" d="M90.871,413.2c-.045,0-.128-.654-.428-1.8a25.671,25.671,0,0,0-1.811-4.688,64.184,64.184,0,0,0-9.6-13.524c-2.141-2.449-4.215-4.756-6.011-6.965a48.16,48.16,0,0,1-4.283-6.176,29.665,29.665,0,0,1-2.164-4.583c-.2-.563-.346-1.007-.421-1.307a1.848,1.848,0,0,1-.113-.473s.233.624.676,1.728a32.752,32.752,0,0,0,2.254,4.508,51.528,51.528,0,0,0,4.32,6.093c1.773,2.186,3.854,4.508,6.011,6.935A61.255,61.255,0,0,1,88.85,406.6a23.08,23.08,0,0,1,1.706,4.771,12.655,12.655,0,0,1,.24,1.36A2.536,2.536,0,0,1,90.871,413.2Z" transform="translate(-46.37 -286.932)" fill="#fe715d"/>
        <path id="Path_88" data-name="Path 88" d="M120.465,394.139a9.761,9.761,0,0,1-1.119.624,25.07,25.07,0,0,0-2.908,1.923,34.552,34.552,0,0,0-3.817,3.479c-1.337,1.42-2.72,3.065-4.125,4.824-2.817,3.531-5.455,6.657-7.025,9.151a34.61,34.61,0,0,0-1.766,3.005,11.557,11.557,0,0,1-.616,1.127,1,1,0,0,1,.1-.323c.09-.2.2-.5.383-.872a27.648,27.648,0,0,1,1.66-3.1,96.626,96.626,0,0,1,6.957-9.256c1.412-1.758,2.81-3.411,4.17-4.824a31.088,31.088,0,0,1,3.914-3.449,19.533,19.533,0,0,1,3.005-1.833c.368-.188.669-.308.872-.391S120.458,394.124,120.465,394.139Z" transform="translate(-54.589 -292.018)" fill="#fe715d"/>
        <path id="Path_89" data-name="Path 89" d="M123.221,404.551a15.243,15.243,0,0,1-2.329.331,31.559,31.559,0,0,0-5.62,1.1,16.724,16.724,0,0,0-5.026,2.645c-1.165.894-1.705,1.638-1.766,1.593a1.963,1.963,0,0,1,.353-.548,9.249,9.249,0,0,1,1.232-1.262,15.289,15.289,0,0,1,5.086-2.8,24.888,24.888,0,0,1,5.71-1.007A13.524,13.524,0,0,1,123.221,404.551Z" transform="translate(-56.924 -294.602)" fill="#fe715d"/>
        <path id="Path_90" data-name="Path 90" d="M109.347,408.344c-.12-.068.947-1.7,1.773-3.892s.962-4.155,1.1-4.132a3.591,3.591,0,0,1,0,1.27,13.305,13.305,0,0,1-.691,3.005,14.225,14.225,0,0,1-1.375,2.742A5.919,5.919,0,0,1,109.347,408.344Z" transform="translate(-57.137 -293.557)" fill="#fe715d"/>
        <path id="Path_91" data-name="Path 91" d="M127.4,366.15a2.133,2.133,0,0,1-.383.2l-1.112.511c-.488.21-1.082.473-1.743.827s-1.45.7-2.254,1.187l-1.292.751c-.443.255-.887.564-1.36.857-.954.579-1.908,1.292-2.923,2.014a56.258,56.258,0,0,0-6.108,5.372,54.892,54.892,0,0,0-5.154,6.289c-.691,1.044-1.375,2.021-1.916,3.005-.278.481-.571.932-.811,1.39l-.691,1.315c-.458.834-.751,1.623-1.112,2.307a13.224,13.224,0,0,0-.751,1.773c-.18.5-.346.826-.466,1.127a1.655,1.655,0,0,1-.188.383,1.435,1.435,0,0,1,.113-.406c.105-.308.24-.691.4-1.165s.4-1.112.706-1.8.616-1.5,1.067-2.337l.669-1.337c.24-.466.526-.924.8-1.413.541-.984,1.21-1.976,1.9-3.005a52.157,52.157,0,0,1,5.177-6.356,51.234,51.234,0,0,1,6.168-5.387,31.056,31.056,0,0,1,3.005-2c.481-.293.932-.594,1.382-.849l1.315-.714c.826-.481,1.615-.819,2.3-1.149a17.1,17.1,0,0,1,1.781-.751l1.142-.436A1.5,1.5,0,0,1,127.4,366.15Z" transform="translate(-54.601 -285.059)" fill="#fe715d"/>
        <path id="Path_92" data-name="Path 92" d="M114.24,380.3a2.69,2.69,0,0,1,.924-1.382,5.86,5.86,0,0,1,3.757-1.435,10.246,10.246,0,0,1,3.944.751,5.591,5.591,0,0,1,1.5.751,10.022,10.022,0,0,1-1.585-.466,11.862,11.862,0,0,0-3.839-.639,6.124,6.124,0,0,0-3.584,1.255A11.269,11.269,0,0,0,114.24,380.3Z" transform="translate(-58.356 -287.877)" fill="#fe715d"/>
        <path id="Path_93" data-name="Path 93" d="M110.87,382.367a13.936,13.936,0,0,0,1.067-3.464,14.229,14.229,0,0,0-.24-3.614,2.344,2.344,0,0,1,.436,1.007,7.025,7.025,0,0,1,.188,2.652,7.131,7.131,0,0,1-.751,2.539C111.2,382.082,110.908,382.39,110.87,382.367Z" transform="translate(-57.518 -287.332)" fill="#fe715d"/>
        <path id="Path_94" data-name="Path 94" d="M74.2,431.44c.586,10.346,3.7,20.864,8.5,31.5h20.849c4.576-10.519,7.476-21.037,7.994-31.5Z" transform="translate(-48.399 -301.295)" fill="#455a64"/>
        <path id="Path_95" data-name="Path 95" d="M109.249,453.655c0,.113-6.867.2-15.335.2s-15.335-.083-15.335-.2,6.867-.2,15.335-.2S109.249,453.55,109.249,453.655Z" transform="translate(-49.489 -306.771)" fill="#fafafa"/>
        <path id="Path_96" data-name="Path 96" d="M109.263,458.645c0,.105-6.439.2-14.373.2s-14.38-.09-14.38-.2,6.439-.2,14.38-.2S109.263,458.54,109.263,458.645Z" transform="translate(-49.969 -308.012)" fill="#fafafa"/>
        <path id="Path_97" data-name="Path 97" d="M85.935,440.48a59.189,59.189,0,0,1,0,9.61A59.193,59.193,0,0,1,85.935,440.48Z" transform="translate(-51.269 -303.543)" fill="#fafafa"/>
        <path id="Path_98" data-name="Path 98" d="M100.765,440.48a63.419,63.419,0,0,1,0,9.947A63.417,63.417,0,0,1,100.765,440.48Z" transform="translate(-54.957 -303.543)" fill="#fafafa"/>
        <path id="Path_99" data-name="Path 99" d="M114.725,440.37a65.931,65.931,0,0,1,0,10.143A65.927,65.927,0,0,1,114.725,440.37Z" transform="translate(-58.429 -303.516)" fill="#fafafa"/>
        <path id="Path_100" data-name="Path 100" d="M111.093,440.415c0,.105-8.054.2-17.987.2s-17.987-.09-17.987-.2,8.054-.2,17.987-.2S111.093,440.31,111.093,440.415Z" transform="translate(-48.628 -303.479)" fill="#fafafa"/>
      </g>
      <g id="Character" transform="translate(200.948 52.541)">
        <path id="Path_101" data-name="Path 101" d="M311.283,406.21l-5.951,23.216-12.592-2.96,5.913-23.276Z" transform="translate(-273.775 -152.827)" fill="#fe715d"/>
        <path id="Path_102" data-name="Path 102" d="M341.338,462.507c-.105,0,1.18-5.117,2.863-11.368s3.133-11.27,3.238-11.27-1.172,5.117-2.863,11.368S341.443,462.507,341.338,462.507Z" transform="translate(-315.777 -188.222)" fill="#263238"/>
        <path id="Path_103" data-name="Path 103" d="M305.738,434.985l-12.577-3.005-.421,1.645,12.592,2.96Z" transform="translate(-273.775 -159.986)" fill="#e0e0e0"/>
        <path id="Path_104" data-name="Path 104" d="M335.08,458.481a2.873,2.873,0,0,1,.451-.421,9.027,9.027,0,0,1,1.428-.909,8.92,8.92,0,0,1,2.374-.826,6.867,6.867,0,0,1,7.416,3.479,5.96,5.96,0,0,1,.563,1.6,1.743,1.743,0,0,1,.053.616,13.881,13.881,0,0,0-.857-2.081,6.89,6.89,0,0,0-4.185-3.148,7.866,7.866,0,0,0-5.259.616C335.809,457.985,335.118,458.533,335.08,458.481Z" transform="translate(-314.222 -192.28)" fill="#263238"/>
        <g id="Group_8" data-name="Group 8" transform="translate(22.549 256.99)" opacity="0.3">
          <path id="Path_105" data-name="Path 105" d="M298.156,412.01l-.646,2.562,12.63,2.908.5-1.923Z" transform="translate(-297.51 -412.01)"/>
        </g>
        <path id="Path_106" data-name="Path 106" d="M401.8,441.82l-.646,14.974s15.027,5.7,15.154,8.475l-29.084-.218.053-23.381Z" transform="translate(-327.188 -188.67)" fill="#fe715d"/>
        <path id="Path_107" data-name="Path 107" d="M393.775,460.093a1.2,1.2,0,0,0-.841,1.36,1.157,1.157,0,0,0,1.345.841,1.262,1.262,0,0,0,.879-1.443,1.2,1.2,0,0,0-1.5-.751" transform="translate(-328.604 -193.238)" fill="#fe715d"/>
        <path id="Path_108" data-name="Path 108" d="M387.22,472.014V469.67l28.145,1.067s1.3.579,1.15,1.5Z" transform="translate(-327.188 -195.633)" fill="#fe715d"/>
        <path id="Path_109" data-name="Path 109" d="M405.843,461.655c0,.143-.751.2-1.427.654s-1.082,1.052-1.217,1,.09-.887.954-1.42S405.88,461.52,405.843,461.655Z" transform="translate(-331.152 -193.606)" fill="#fe715d"/>
        <path id="Path_110" data-name="Path 110" d="M410.173,463.4c0,.135-.586.376-1.082.977s-.631,1.24-.751,1.232-.225-.819.4-1.555S410.173,463.265,410.173,463.4Z" transform="translate(-332.417 -194.059)" fill="#fe715d"/>
        <path id="Path_111" data-name="Path 111" d="M413.044,467.516c-.135,0-.323-.684.045-1.465s1.044-1.089,1.1-.969-.353.534-.654,1.18S413.187,467.5,413.044,467.516Z" transform="translate(-333.567 -194.485)" fill="#fe715d"/>
        <path id="Path_112" data-name="Path 112" d="M405.434,456.935c-.068.128-.751-.075-1.5,0s-1.443.3-1.5.173.533-.631,1.5-.669S405.5,456.86,405.434,456.935Z" transform="translate(-330.969 -192.342)" fill="#fe715d"/>
        <path id="Path_113" data-name="Path 113" d="M405.06,452.219a2.7,2.7,0,0,1-1.5,0,6.924,6.924,0,0,1-1.5-.481,7.11,7.11,0,0,1-.834-.458,1.7,1.7,0,0,1-.443-.346.624.624,0,0,1-.06-.751.751.751,0,0,1,.631-.323,1.932,1.932,0,0,1,.548.075,5.387,5.387,0,0,1,.909.323,4.988,4.988,0,0,1,1.345.9c.676.631.909,1.164.857,1.195s-.391-.406-1.082-.932a6.112,6.112,0,0,0-1.3-.751,5.515,5.515,0,0,0-.842-.263c-.308-.09-.571-.09-.654.045s-.038.075,0,.165a1.556,1.556,0,0,0,.323.255,7.688,7.688,0,0,0,2.186,1,11.187,11.187,0,0,1,1.42.346Z" transform="translate(-330.52 -190.706)" fill="#fe715d"/>
        <path id="Path_114" data-name="Path 114" d="M406.152,451.776a2.39,2.39,0,0,1-.383-1.42,4.875,4.875,0,0,1,.594-2.494,1.21,1.21,0,0,1,.947-.751.691.691,0,0,1,.609.413,2.074,2.074,0,0,1,.143.541,3.083,3.083,0,0,1,0,.984,3.389,3.389,0,0,1-.631,1.5c-.579.751-1.18.917-1.195.872a6.024,6.024,0,0,0,.9-1.074,3.335,3.335,0,0,0,.473-1.375,2.947,2.947,0,0,0,0-.849c-.045-.308-.158-.563-.27-.533a1.08,1.08,0,0,0-.519.481,4.137,4.137,0,0,0-.368.789,5.3,5.3,0,0,0-.3,1.465C406.077,451.212,406.227,451.753,406.152,451.776Z" transform="translate(-331.8 -190.023)" fill="#fe715d"/>
        <g id="Group_9" data-name="Group 9" transform="translate(60.025 261.986)" opacity="0.3">
          <path id="Path_115" data-name="Path 115" d="M347.39,418.66l.03,3.321h14.027v-1.826Z" transform="translate(-347.39 -418.66)" fill="#fe715d"/>
        </g>
        <path id="Path_116" data-name="Path 116" d="M308.837,153.243l1.6,6.574,9.482-1.247-.2-7.9c.15-.5.323-1.044.541-1.653a6.937,6.937,0,0,1,1.112-1.961,10.589,10.589,0,0,1,1.968-2,.864.864,0,0,0-.21-1.615c-.751-.053-2.81,1.157-4.365,3.464s-1.893-2.006-2.051-3.576-.857-6.386-1.367-6.709c-.751-.473-1.428.27-1.24,1.833s.428,6.289-.4,6.356h0a3.351,3.351,0,0,0-3.914-.09c-1.142.751-2.6,1.976-2.464,2.945a44.786,44.786,0,0,0,1.51,5.575Z" transform="translate(-307.318 -112.777)" fill="#b78876"/>
        <path id="Path_117" data-name="Path 117" d="M390.7,113.54l.113,35.966-15.432.751-.443-8.745s-5.485,1.082-6.9-4c-.9-3.253-.676-28.378-.676-28.378Z" transform="translate(-322.243 -105.976)" fill="#b78876"/>
        <path id="Path_118" data-name="Path 118" d="M363.311,113.939c-.428,3.419,4.343,5.395,4.343,5.395l.841,8.084a16.141,16.141,0,0,1,2.254,0c-.4-3.757,4.508-3.05,4.981-.466s-2.352,4.147-2.352,4.147c1.953,3.005,2.742,4.583,5.522,7.393,3.005,3.043,4.613,3.291,7.716,3.2l3.411-.158s1.217-2.923,2.111-9.812c.428-3.313,3.005-7.656,2.254-13.051-2.081-15.335-16.762-13.689-16.762-13.689C370.02,105.163,364.318,106.012,363.311,113.939Z" transform="translate(-321.236 -104.932)" fill="#263238"/>
        <path id="Path_119" data-name="Path 119" d="M400.35,114.811a2.585,2.585,0,0,1-2.337-1.818,3.794,3.794,0,0,1,.421-3.005,7.28,7.28,0,0,1,2.2-2.254A6.37,6.37,0,0,1,405.9,106.4a4.508,4.508,0,0,1,3.005,4.733,5.259,5.259,0,0,1-3.824,4.313,6.469,6.469,0,0,1-5.725-1.315" transform="translate(-329.837 -105.255)" fill="#263238"/>
        <path id="Path_120" data-name="Path 120" d="M398.82,114.51c.038-.06.549.278,1.5.488a7.926,7.926,0,0,0,3.7-.105,18.578,18.578,0,0,0,3.5-1.413,7.071,7.071,0,0,1,1.45-.661,6.084,6.084,0,0,1-1.315.9,13.887,13.887,0,0,1-3.539,1.548,7.205,7.205,0,0,1-3.869,0A3.006,3.006,0,0,1,398.82,114.51Z" transform="translate(-330.073 -106.893)" fill="#455a64"/>
        <path id="Path_121" data-name="Path 121" d="M398.587,111.35a7.516,7.516,0,0,1-.045.969,3.8,3.8,0,0,0,.654,2.126,3.847,3.847,0,0,0,1.766,1.352c.556.21.932.233.932.293s-.391.12-1.014,0a3.5,3.5,0,0,1-2.615-3.757C398.339,111.673,398.549,111.335,398.587,111.35Z" transform="translate(-329.929 -106.528)" fill="#e8505b"/>
        <path id="Path_122" data-name="Path 122" d="M399.06,113.414a15.989,15.989,0,0,0,5.147-.9,16.252,16.252,0,0,0,4.4-2.833,4.509,4.509,0,0,1-1.022,1.195,10.683,10.683,0,0,1-3.231,2.006,10.518,10.518,0,0,1-3.757.751A4.049,4.049,0,0,1,399.06,113.414Z" transform="translate(-330.132 -106.112)" fill="#455a64"/>
        <path id="Path_123" data-name="Path 123" d="M390.777,116.6a.547.547,0,0,1-.12.27,5.517,5.517,0,0,1-.443.751,10.676,10.676,0,0,1-2.141,2.284,11.2,11.2,0,0,1-9.9,2.044,52.587,52.587,0,0,1-5.4-1.841,20.619,20.619,0,0,0-4.448-1.195,10.73,10.73,0,0,0-4.2.27,1.183,1.183,0,0,1,.27-.128,5.166,5.166,0,0,1,.819-.255,9.25,9.25,0,0,1,3.148-.158,19.738,19.738,0,0,1,4.508,1.119c1.653.579,3.426,1.33,5.372,1.811a11.27,11.27,0,0,0,5.537.068,11.464,11.464,0,0,0,4.1-1.961,14.028,14.028,0,0,0,2.9-3.08Z" transform="translate(-321.444 -107.833)" fill="#455a64"/>
        <path id="Path_124" data-name="Path 124" d="M369.22,123.294a.818.818,0,0,0,.263-.068,5.176,5.176,0,0,1,.751-.083,13.043,13.043,0,0,1,2.885.165c1.2.18,2.615.533,4.17.872a17.349,17.349,0,0,0,5.117.466,14.9,14.9,0,0,0,8.49-3.606,23.133,23.133,0,0,0,2.6-2.9,5.181,5.181,0,0,1-.526.917,13.691,13.691,0,0,1-1.886,2.186,14.666,14.666,0,0,1-8.618,3.809,16.868,16.868,0,0,1-5.259-.5c-1.57-.361-2.953-.751-4.14-.947a15.536,15.536,0,0,0-2.833-.293A9.43,9.43,0,0,1,369.22,123.294Z" transform="translate(-322.712 -108.216)" fill="#455a64"/>
        <path id="Path_125" data-name="Path 125" d="M408.233,269.89c0,.045,1.713,40.384,0,77.68a606.745,606.745,0,0,1-6.439,62.45l-19.467-1.886s.864-54.471.789-72.879c-.083-19.121,0-35.989,0-35.989s-7.476-7.6-8.227-16.912,0-11.014,0-11.014Z" transform="translate(-324.039 -145.952)" fill="#263238"/>
        <path id="Path_126" data-name="Path 126" d="M354.937,270.76c0,1.443-3.283,13.524-1.706,22.622S335.35,402.55,335.35,402.55l18.573,5.259s9.767-33.479,15.83-63.269c5.259-25.876,6.867-48.626,6.627-48.543-.526.18-1.736-24.869-1.736-24.869Z" transform="translate(-314.289 -146.169)" fill="#263238"/>
        <path id="Path_127" data-name="Path 127" d="M374.7,271.82a3.1,3.1,0,0,1-.09.541c-.068.353-.158.879-.255,1.57a46.283,46.283,0,0,0-.383,5.913c0,1.262.045,2.66.173,4.162a13.615,13.615,0,0,0,1.217,4.651,30.677,30.677,0,0,0,2.547,4.8,21.031,21.031,0,0,0,1.736,2.329,8.473,8.473,0,0,0,2.254,1.953l.1.053v.105c.075,3.629.158,7.566.24,11.638.2,11.1.391,21.157.518,28.468.045,3.614.09,6.552.113,8.618v2.96a.713.713,0,0,1,0,.2,1.389,1.389,0,0,1,0-.2v-.616c0-.563-.045-1.345-.083-2.344-.06-2.066-.135-5-.24-8.618-.158-7.31-.383-17.356-.631-28.46-.075-4.072-.15-8.009-.225-11.638l.105.165a8.578,8.578,0,0,1-2.344-2.044,20.646,20.646,0,0,1-1.758-2.382,30.663,30.663,0,0,1-2.554-4.869,14.02,14.02,0,0,1-1.195-4.748c-.12-1.5-.15-2.915-.128-4.185a41.912,41.912,0,0,1,.488-5.935c.12-.684.233-1.21.323-1.563a4.918,4.918,0,0,1,.075-.526Z" transform="translate(-323.853 -146.432)" fill="#455a64"/>
        <path id="Path_128" data-name="Path 128" d="M393.889,162.008a24.84,24.84,0,0,1-9.669,2.607,29.483,29.483,0,0,1-9.85-1.788l2.322-1.247A25.058,25.058,0,0,0,392.2,161.2C392.627,161.046,393.889,162.008,393.889,162.008Z" transform="translate(-323.992 -118.921)" fill="#e8505b"/>
        <path id="Path_129" data-name="Path 129" d="M345.64,168.968l-20.113,12.021L320.56,158.84l-11.45,4.215,4.568,25.44a13.719,13.719,0,0,0,13.238,11.39h.143a16.056,16.056,0,0,0,8.76-2.607l10.361-6.762Z" transform="translate(-307.764 -118.337)" fill="#fe715d"/>
        <path id="Path_130" data-name="Path 130" d="M387.291,161.21s19.091,10.113,19.715,14.7,1.578,69.948,1.578,69.948l-48.536-1.863V213.375s-2.945-16.319-3.6-21.6a81.131,81.131,0,0,1,.518-22.217l14.786-7.972A24.222,24.222,0,0,0,387.291,161.21Z" transform="translate(-319.4 -118.927)" fill="#fe715d"/>
        <path id="Path_131" data-name="Path 131" d="M413.307,242.034l-1.074-27.6-41.383,9,5.943,28.986Z" transform="translate(-293.199 -105.887)" fill="#e0e0e0"/>
        <path id="Path_132" data-name="Path 132" d="M414.028,217.04l1.428,27.724-38.047,9.407-4.839-28.9Z" transform="translate(-293.627 -106.536)" fill="#455a64"/>
        <path id="Path_133" data-name="Path 133" d="M406.539,195.23a1.618,1.618,0,0,1,.06.406c0,.316.053.714.1,1.187.068,1.037.18,2.524.338,4.365.316,3.681.879,8.753,1.8,14.313s2.036,10.519,2.923,14.125c.443,1.788.819,3.238,1.082,4.237l.293,1.15a1.314,1.314,0,0,1,.075.413,2.561,2.561,0,0,1-.15-.391c-.1-.3-.218-.676-.361-1.134-.316-.984-.751-2.419-1.21-4.207-.954-3.576-2.111-8.558-3.005-14.132s-1.443-10.661-1.683-14.35c-.128-1.848-.2-3.343-.225-4.38v-1.187A1.509,1.509,0,0,1,406.539,195.23Z" transform="translate(-331.991 -127.387)" fill="#263238"/>
        <path id="Path_134" data-name="Path 134" d="M369.69,236.14a6.481,6.481,0,0,1,.564,1.022c.165.338.376.751.646,1.2s.556.992.939,1.54a21.429,21.429,0,0,0,1.255,1.8c.451.646,1.007,1.27,1.578,1.946a34.81,34.81,0,0,0,4.185,3.929,34.067,34.067,0,0,0,4.846,3.08c.789.391,1.54.751,2.254,1.052s1.413.556,2.044.751,1.217.376,1.728.526a13.523,13.523,0,0,0,1.322.331,7.35,7.35,0,0,1,1.135.293,6.006,6.006,0,0,1-1.165-.143,12.118,12.118,0,0,1-1.345-.271c-.518-.135-1.119-.255-1.758-.473a20.659,20.659,0,0,1-2.081-.751c-.751-.27-1.5-.646-2.322-1.029a29.723,29.723,0,0,1-9.084-7.055c-.571-.691-1.119-1.337-1.57-1.991s-.872-1.262-1.225-1.841-.639-1.119-.894-1.585a11.725,11.725,0,0,1-.594-1.24,6.092,6.092,0,0,1-.458-1.089Z" transform="translate(-322.829 -137.56)" fill="#263238"/>
        <path id="Path_135" data-name="Path 135" d="M330.612,193.449c-.105,0,.18-1.21.233-2.69s-.113-2.675,0-2.69A7.393,7.393,0,0,1,330.612,193.449Z" transform="translate(-313.105 -125.606)" fill="#263238"/>
        <path id="Path_136" data-name="Path 136" d="M433.383,286.892l-1.623-6.567,8.978-3.276,3.479,7.1c.361.368.751.751,1.24,1.21a6.937,6.937,0,0,0,1.893,1.225,10.666,10.666,0,0,0,2.675.864c.857.06,1.21,1.119.556,1.5s-3.005.278-5.47-1.052-.751,2.645-.165,4.117c.135.353.316,1.247-.24,1.5-.849.376-1.382-.3-1.946-1.059a.864.864,0,0,0-1.165-.353h0a3.351,3.351,0,0,1-3.426,1.886c-1.382-.158-3.223-.541-3.554-1.465a43.609,43.609,0,0,1-1.232-5.635Z" transform="translate(-338.264 -147.733)" fill="#b78876"/>
        <path id="Path_137" data-name="Path 137" d="M415.18,175.557a5.47,5.47,0,0,1,4.666,3.546,40.579,40.579,0,0,1,2.494,8.971c.751,5.6,2.322,26.469,2.322,26.469s12.4,41.458,12.314,41.714c0,0-3.757,4.02-10.669,2.855,0,0-11.12-22.344-13.238-27.754s-4.831-18.107-5.026-25.38c-.15-5.537-1.623-14.14-1.623-19.2,0-2.352,1.758-6.251,3.231-8.084C410.913,177.135,412.641,175.407,415.18,175.557Z" transform="translate(-331.962 -122.492)" fill="#fe715d"/>
        <path id="Path_138" data-name="Path 138" d="M406.539,195.23a1.618,1.618,0,0,1,.06.406c0,.316.053.714.1,1.187.068,1.037.18,2.524.338,4.365.316,3.681.879,8.753,1.8,14.313s2.036,10.519,2.923,14.125c.443,1.788.819,3.238,1.082,4.237l.293,1.15a1.314,1.314,0,0,1,.075.413,2.561,2.561,0,0,1-.15-.391c-.1-.3-.218-.676-.361-1.134-.316-.984-.751-2.419-1.21-4.207-.954-3.576-2.111-8.558-3.005-14.132s-1.443-10.661-1.683-14.35c-.128-1.848-.2-3.343-.225-4.38v-1.187A1.509,1.509,0,0,1,406.539,195.23Z" transform="translate(-331.991 -127.387)" fill="#263238"/>
        <g id="Group_10" data-name="Group 10" transform="translate(32.775 58.242)" opacity="0.3">
          <path id="Path_139" data-name="Path 139" d="M354.9,182.45s-5.011,12.367-3.757,17.468l4.065-2.66S353.991,187.371,354.9,182.45Z" transform="translate(-350.942 -182.45)"/>
        </g>
      </g>
    </g>
    <rect id="Rectangle_24" data-name="Rectangle 24" width="53.688" height="5.712" transform="translate(560.193 204.596)" fill="#fff" opacity="0.43"/>
    <rect id="Rectangle_25" data-name="Rectangle 25" width="73.107" height="9.138" transform="translate(560.193 220.588)" fill="#fff" opacity="0.43"/>
    <rect id="Rectangle_26" data-name="Rectangle 26" width="36.554" height="5.712" transform="translate(513.358 279.988)" fill="#fcebeb"/>
    <rect id="Rectangle_27" data-name="Rectangle 27" width="81.103" height="7.996" transform="translate(513.358 297.122)" fill="#fcebeb"/>
    <line id="Line_3" data-name="Line 3" x1="384" transform="translate(513.5 549.5)" fill="none" stroke="#a5a5a5" stroke-width="2"/>
    <rect id="Rectangle_28" data-name="Rectangle 28" width="66" height="13" rx="3" transform="translate(677 323)" fill="#fe715d"/>
    <rect id="Rectangle_29" data-name="Rectangle 29" width="66" height="13" rx="3" transform="translate(677 382)" fill="rgba(112,112,112,0.34)"/>
    <rect id="Rectangle_30" data-name="Rectangle 30" width="66" height="8" rx="3" transform="translate(677 355)" fill="rgba(255,195,179,0.68)"/>
    <rect id="Rectangle_31" data-name="Rectangle 31" width="23" height="8" rx="3" transform="translate(677 413)" fill="#fe715d"/>
    <text id="_............" data-name="............" transform="translate(708 431)" fill="#fe715d" font-size="18" font-family="MicrosoftYaHeiUI-Bold, Microsoft YaHei UI" font-weight="700"><tspan x="-30.85" y="0">............</tspan></text>
    <circle id="Ellipse_29" data-name="Ellipse 29" cx="10.5" cy="10.5" r="10.5" transform="translate(533 498)" fill="#6fb97a"/>
    <circle id="Ellipse_30" data-name="Ellipse 30" cx="5" cy="5" r="5" transform="translate(882 509)" fill="#996495"/>
    <circle id="Ellipse_31" data-name="Ellipse 31" cx="6" cy="6" r="6" transform="translate(666 145)" fill="#ef6b5d"/>
    <circle id="Ellipse_33" data-name="Ellipse 33" cx="6.5" cy="6.5" r="6.5" transform="translate(515 191)" fill="#6953c2"/>
  </g>
</svg>
